HIERARCHY
ROOT Hips
{
	OFFSET 0.00000 0.00000 0.00000
	CHANNELS 6 Xposition Yposition Zposition Zrotation Yrotation Xrotation 
	JOINT LHipJoint
	{
		OFFSET 0 0 0
		CHANNELS 3 Zrotation Yrotation Xrotation
		JOINT LeftHip
		{
			OFFSET 1.26600 -1.82114 0.91038
			CHANNELS 3 Zrotation Yrotation Xrotation
			JOINT LeftKnee
			{
				OFFSET 2.50076 -6.87080 0.00000
				CHANNELS 3 Zrotation Yrotation Xrotation
				JOINT LeftAnkle
				{
					OFFSET 2.57364 -7.07102 0.00000
					CHANNELS 3 Zrotation Yrotation Xrotation
					JOINT LeftToe
					{
						OFFSET 0.13572 -0.37290 1.97004
						CHANNELS 3 Zrotation Yrotation Xrotation
						End Site
						{
							OFFSET 0.00000 -0.00000 1.01383
						}
					}
				}
			}
		}
	}
	JOINT RHipJoint
	{
		OFFSET 0 0 0
		CHANNELS 3 Zrotation Yrotation Xrotation
		JOINT RightHip
		{
			OFFSET -1.20803 -1.82114 0.91038
			CHANNELS 3 Zrotation Yrotation Xrotation
			JOINT RightKnee
			{
				OFFSET -2.54916 -7.00377 0.00000
				CHANNELS 3 Zrotation Yrotation Xrotation
				JOINT RightAnkle
				{
					OFFSET -2.56374 -7.04382 0.00000
					CHANNELS 3 Zrotation Yrotation Xrotation
					JOINT RightToe
					{
						OFFSET -0.23520 -0.64621 2.09921
						CHANNELS 3 Zrotation Yrotation Xrotation
						End Site
						{
							OFFSET -0.00000 -0.00000 1.10065
						}
					}
				}
			}
		}
	}
	JOINT lowerback
	{
		OFFSET 0 0 0
		CHANNELS 3 Zrotation Yrotation Xrotation
		JOINT Chest
		{
			OFFSET 0.05492 2.10797 -0.12074
			CHANNELS 3 Zrotation Yrotation Xrotation
			JOINT Chest2
			{
				OFFSET 0.04577 2.11592 -0.04483
				CHANNELS 3 Zrotation Yrotation Xrotation
				JOINT lowerneck
				{
					OFFSET 0 0 0
					CHANNELS 3 Zrotation Yrotation Xrotation
					JOINT Neck
					{
						OFFSET -0.10759 1.80167 0.15770
						CHANNELS 3 Zrotation Yrotation Xrotation
						JOINT Head
						{
							OFFSET 0.09237 1.77509 -0.40848
							CHANNELS 3 Zrotation Yrotation Xrotation
							End Site
							{
								OFFSET 0.03805 1.84093 -0.15754
							}
						}
					}
				}
				JOINT LeftCollar
				{
					OFFSET 0 0 0
					CHANNELS 3 Zrotation Yrotation Xrotation
					JOINT LeftShoulder
					{
						OFFSET 3.42372 1.09575 -0.28209
CHANNELS 3 Zrotation Xrotation Yrotation
						JOINT LeftElbow
						{
OFFSET 0 -4.956810 0.000000
CHANNELS 3 Zrotation Xrotation Yrotation
							JOINT LeftWrist
							{
OFFSET 0 -3.409150 0.000000
CHANNELS 3 Zrotation Xrotation Yrotation
								JOINT lhand
								{
									OFFSET 0 0 0
CHANNELS 3 Zrotation Xrotation Yrotation
									JOINT LFingers
									{
OFFSET 0 -0.616400 0.000000
CHANNELS 3 Zrotation Xrotation Yrotation
										End Site
										{
OFFSET 0 -0.496960 0.000000
										}
									}
								}
								JOINT LThumb
								{
OFFSET 0 0.000000 0.000000
CHANNELS 3 Zrotation Xrotation Yrotation
									End Site
									{
OFFSET 0 -0.504550 0.504550
									}
								}
							}
						}
					}
				}
				JOINT RightCollar
				{
					OFFSET 0 0 0
					CHANNELS 3 Zrotation Yrotation Xrotation
					JOINT RightShoulder
					{
						OFFSET -3.24731 1.15872 -0.32221
CHANNELS 3 Zrotation Xrotation Yrotation
						JOINT RightElbow
						{
OFFSET 0 -5.352000 0.000000
CHANNELS 3 Zrotation Xrotation Yrotation
							JOINT RightWrist
							{
OFFSET 0 -3.437210 -0.000000
CHANNELS 3 Zrotation Xrotation Yrotation
								JOINT rhand
								{
									OFFSET 0 0 0
CHANNELS 3 Zrotation Xrotation Yrotation
									JOINT RFingers
									{
OFFSET 0 -0.720090 0.000000
CHANNELS 3 Zrotation Xrotation Yrotation
										End Site
										{
OFFSET 0 -0.580560 0.000000
										}
									}
								}
								JOINT RThumb
								{
OFFSET 0 0.000000 0.000000
CHANNELS 3 Zrotation Xrotation Yrotation
									End Site
									{
OFFSET 0 -0.589420 0.589420
									}
								}
							}
						}
					}
				}
			}
		}
	}
}
MOTION
Frames: 4
Frame Time: 0.008333333333333333
-1.849500 20.684100 10.505200 -4.301800 0.854300 2.304100 0.000000 0.000000 0.000000 -15.160800 -3.014600 -10.205900 2.921300 10.566600 30.831800 0.670300 -12.223100 -15.815500 0.455500 4.329400 12.005300 0.000000 0.000000 0.000000 27.678700 1.281300 -9.414400 -2.621800 -10.056000 29.158400 -1.410300 5.099300 -21.360100 -0.091800 -1.954500 5.380000 1.888900 -1.325800 -0.103800 3.239300 -1.734800 -1.004200 2.275600 -0.869100 -0.927000 -9.790000 -3.707100 -13.375300 4.745000 -4.514400 36.797700 2.985900 -2.661600 15.555000 -0.000000 0.000000 0.000000 1.109000 9.089300 -18.366400 16.665300 -26.414500 3.937300 17.241400 4.695100 -17.692100 0.000000 0.000000 0.000000 -7.125000 0.000000 0.000000 -10.409800 48.170700 0.822600 -0.000000 0.000000 0.000000 -3.352400 2.999700 18.491400 -14.791500 -23.854800 -3.141100 -20.038700 -9.801900 -12.591600 0.000000 0.000000 0.000000 7.125000 0.000000 -0.000000 5.003400 16.637800 3.374300
-1.944361 20.597167 10.550866 -6.391495 1.406884 1.346727 0.000000 0.000000 0.000000 -12.564309 -4.809995 -11.467494 3.889318 12.010403 35.770598 0.806893 -10.280110 -16.519753 0.000903 -0.174038 -0.478232 0.000000 0.000000 0.000000 30.513170 1.158013 -7.985369 -2.601147 -10.019456 29.039743 -1.372629 4.961763 -21.074401 -0.241805 -3.040698 8.401692 3.842223 -1.014084 0.974040 3.842472 -1.282748 -0.080685 1.810865 -0.647890 -0.625593 -8.675479 -2.161649 -14.204309 4.566218 -2.329789 38.027856 3.132628 -1.611450 16.108420 0.000000 0.000000 0.000000 1.276875 8.859160 -18.478165 17.320262 -27.278045 4.233094 16.681362 5.067426 -18.622944 0.000000 0.000000 0.000000 -7.125000 0.000000 0.000000 -11.236176 49.030404 1.131289 0.000000 0.000000 0.000000 -2.953715 3.293074 18.678035 -15.356123 -24.639918 -3.373019 -20.124307 -10.550253 -12.102245 0.000000 0.000000 0.000000 7.125000 0.000000 0.000000 4.930413 17.145914 3.270024
-2.032048 20.614514 10.662976 -7.720406 2.614451 -0.078735 0.000000 0.000000 0.000000 -10.276278 -6.678026 -16.105093 6.477430 14.874421 46.867037 0.222558 -9.779806 -10.145923 0.083248 -1.861024 -5.121822 0.000000 0.000000 0.000000 32.254385 -1.699305 -5.420511 -2.098179 -9.067374 26.006623 -1.269879 4.671763 -20.272824 -0.058250 -1.556264 4.280969 5.069108 -0.874089 1.908485 4.202495 -1.080352 1.156125 1.498818 -0.527733 0.106843 -9.200212 -1.935999 -13.759647 5.104851 -2.021478 37.416176 3.495218 -1.459637 15.671367 0.000000 0.000000 0.000000 1.230805 7.785181 -18.436629 17.452546 -27.450499 4.293931 17.767812 4.599115 -17.098638 0.000000 0.000000 0.000000 -7.125000 0.000000 0.000000 -9.742522 47.639004 0.646076 0.000000 0.000000 0.000000 -2.698204 2.688076 18.283551 -14.602039 -23.588816 -3.064952 -19.706220 -9.880148 -12.964069 0.000000 0.000000 0.000000 7.125000 0.000000 0.000000 5.244205 16.276531 3.579336
-2.123056 20.621306 10.776262 -9.849452 3.862719 -1.218721 0.000000 0.000000 0.000000 -5.814079 -8.805730 -24.696187 10.250353 17.546473 60.319494 -0.165126 -7.539242 5.061020 0.016800 -0.837225 -2.300949 0.000000 0.000000 0.000000 34.991040 -3.662938 -2.393691 -1.478828 -7.682314 21.753899 -1.093405 4.095063 -18.823003 -0.136276 -2.379459 6.555540 7.269017 -0.539796 3.155935 4.630183 -0.505078 1.743293 0.719481 -0.222538 0.010422 -9.421561 -2.370500 -12.501263 5.229559 -2.747063 36.940196 3.448212 -1.768493 15.219495 0.000000 0.000000 0.000000 1.647277 8.014154 -19.257218 18.188515 -28.397758 4.638599 16.553222 3.735565 -19.413983 0.000000 0.000000 0.000000 -7.125000 0.000000 0.000000 -11.626266 49.807978 1.395246 0.000000 0.000000 0.000000 -2.358539 3.461742 17.689205 -13.945992 -22.657313 -2.807340 -20.172492 -8.956986 -13.967909 0.000000 0.000000 0.000000 7.125000 0.000000 0.000000 4.956971 15.176367 3.499644
